<?xml version="1.0" standalone="no"?>
<!DOCTYPE svg PUBLIC "-//W3C//DTD SVG 20010904//EN"
 "http://www.w3.org/TR/2001/REC-SVG-20010904/DTD/svg10.dtd">
<svg version="1.0" xmlns="http://www.w3.org/2000/svg"
 width="500.000000pt" height="500.000000pt" viewBox="0 0 500.000000 500.000000"
 preserveAspectRatio="xMidYMid meet">

<g transform="translate(0.000000,500.000000) scale(0.100000,-0.100000)"
fill="#000000" stroke="none">
<path d="M3705 3972 c-36 -18 -83 -53 -119 -90 -58 -59 -61 -61 -125 -67 -187
-19 -280 -52 -376 -132 -71 -59 -676 -694 -689 -723 -6 -13 -5 -29 2 -45 9
-20 19 -25 49 -25 43 0 37 -5 436 417 228 241 299 308 367 343 34 18 130 40
130 30 0 -4 -100 -113 -222 -242 -123 -128 -297 -312 -388 -408 -204 -218
-500 -528 -646 -680 -61 -63 -156 -162 -211 -220 -54 -58 -176 -185 -269 -283
-135 -140 -175 -188 -191 -230 -27 -66 -101 -257 -143 -367 -18 -47 -48 -122
-67 -167 -19 -45 -33 -93 -31 -105 5 -35 47 -34 126 3 73 34 507 227 559 248
19 8 93 77 180 170 253 269 1019 1073 1258 1321 56 58 184 193 285 300 101
107 214 227 251 265 37 39 99 104 138 145 92 98 131 174 131 261 0 118 -56
215 -158 275 -39 23 -61 29 -132 32 -78 3 -90 1 -145 -26z m229 -121 c69 -43
97 -141 63 -223 -17 -41 -93 -128 -111 -128 -6 1 -67 54 -136 119 l-124 119
37 45 c50 61 127 100 188 94 26 -2 63 -14 83 -26z m-259 -330 l125 -124 -52
-56 c-77 -82 -593 -625 -738 -776 -133 -138 -165 -172 -580 -610 -504 -531
-541 -570 -549 -570 -14 0 -263 245 -259 255 2 5 66 73 143 152 77 79 178 184
225 233 47 50 212 223 366 385 348 366 819 863 1023 1078 85 89 158 161 162
160 5 -2 65 -59 134 -127z m-2014 -2098 c101 -99 126 -133 98 -133 -6 0 -80
-30 -165 -66 -84 -36 -158 -63 -165 -59 -16 10 -4 59 40 173 21 53 46 118 55
145 10 26 20 47 23 47 3 0 55 -48 114 -107z"/>
</g>
</svg>
